<?xml version="1.0" encoding="UTF-8" standalone="no"?>
<svg
   width="190"
   height="53"
   viewBox="0 0 190 53"
   fill="none"
   version="1.1"
   id="svg24"
   sodipodi:docname="actions.svg"
   inkscape:version="1.2.1 (9c6d41e410, 2022-07-14)"
   xmlns:inkscape="http://www.inkscape.org/namespaces/inkscape"
   xmlns:sodipodi="http://sodipodi.sourceforge.net/DTD/sodipodi-0.dtd"
   xmlns="http://www.w3.org/2000/svg"
   xmlns:svg="http://www.w3.org/2000/svg">
  <sodipodi:namedview
     id="namedview14"
     pagecolor="#ffffff"
     bordercolor="#000000"
     borderopacity="0.25"
     inkscape:showpageshadow="2"
     inkscape:pageopacity="0.0"
     inkscape:pagecheckerboard="0"
     inkscape:deskcolor="#d1d1d1"
     showgrid="false"
     inkscape:lockguides="false"
     inkscape:zoom="2.3020254"
     inkscape:cx="94.047616"
     inkscape:cy="8.2536014"
     inkscape:window-width="1366"
     inkscape:window-height="699"
     inkscape:window-x="0"
     inkscape:window-y="0"
     inkscape:window-maximized="1"
     inkscape:current-layer="svg24" />
  <defs
     id="defs28" />
  <path
     d="m 178.041,37.52 c -0.55,0 -1,-0.45 -1,-1 v -3.17 c 0,-1.81 -0.71,-3.51 -1.99,-4.8 -0.55,-0.54 -1.17,-0.98 -1.85,-1.31 -0.33,-0.16 -0.54,-0.47 -0.57,-0.83 -0.03,-0.36 0.15,-0.71 0.45,-0.9 1.47,-0.96 2.34,-2.58 2.34,-4.33 0,-2.85 -2.32,-5.16 -5.16,-5.16 -2.85,0 -5.17,2.32 -5.17,5.16 0,1.75 0.88,3.37 2.35,4.33 0.3,0.2 0.47,0.54 0.45,0.9 -0.02,0.36 -0.24,0.68 -0.57,0.83 -2.33,1.12 -3.84,3.51 -3.84,6.1 v 3.17 c 0,0.55 -0.45,1 -1,1 -0.55,0 -1,-0.45 -1,-1 v -3.17 c 0,-2.85 1.41,-5.51 3.68,-7.14 -1.31,-1.33 -2.07,-3.13 -2.07,-5.04 0,-3.95 3.22,-7.16 7.17,-7.16 3.95,0 7.16,3.21 7.16,7.16 0,1.91 -0.75,3.71 -2.06,5.04 0.39,0.28 0.75,0.58 1.1,0.92 1.66,1.66 2.58,3.87 2.58,6.21 v 3.17 c 0,0.57 -0.45,1.02 -1,1.02 z"
     fill="#000000"
     id="path6" />
  <path
     d="m 72.911,35.42 c -5.9,0 -10.7,-4.8 -10.7,-10.7 0,-5.9 4.8,-10.7 10.7,-10.7 5.9,0 10.7,4.8 10.7,10.7 0,5.9 -4.8,10.7 -10.7,10.7 z m 0,-19.41 c -4.8,0 -8.7,3.9 -8.7,8.7 0,4.8 3.9,8.7 8.7,8.7 4.8,0 8.7,-3.9 8.7,-8.7 0,-4.8 -3.9,-8.7 -8.7,-8.7 z"
     fill="#000000"
     id="path8" />
  <path
     d="m 84.741,37.53 c -0.26,0 -0.51,-0.1 -0.71,-0.29 l -4.96,-4.96 c -0.39,-0.39 -0.39,-1.02 0,-1.41 0.39,-0.39 1.02,-0.39 1.41,0 l 4.96,4.96 c 0.39,0.39 0.39,1.02 0,1.41 -0.19,0.19 -0.45,0.29 -0.7,0.29 z"
     fill="#000000"
     id="path10" />
  <path
     d="m 33.111,37.52 h -16.41 c -0.47,0 -0.8801,-0.33 -0.9801,-0.79 l -2.7,-12.37 c -0.06,-0.3 0.01,-0.6 0.2,-0.84 0.19,-0.24 0.48,-0.37 0.78,-0.37 H 35.821 c 0.3,0 0.59,0.14 0.78,0.37 0.19,0.24 0.26,0.54 0.2,0.84 l -2.71,12.37 c -0.1,0.46 -0.51,0.79 -0.98,0.79 z m -15.6,-2 h 14.8 l 2.27,-10.37 H 15.2409 Z"
     fill="#000000"
     id="path12" />
  <path
     d="m 16.861,25.15 c -0.19,0 -0.39,-0.06 -0.56,-0.17 -0.4601,-0.31 -0.5802,-0.93 -0.27,-1.39 l 6.14,-9.13 c 0.31,-0.46 0.93,-0.58 1.39,-0.27 0.46,0.31 0.58,0.93 0.27,1.39 l -6.14,9.13 c -0.19,0.28 -0.51,0.44 -0.83,0.44 z"
     fill="#000000"
     id="path14" />
  <path
     d="m 32.951,24.95 c -0.23,0 -0.47,-0.08 -0.66,-0.25 l -7.31,-6.36 c -0.42,-0.36 -0.46,-0.99 -0.1,-1.41 0.36,-0.42 1,-0.46 1.41,-0.1 l 7.31,6.36 c 0.42,0.36 0.46,0.99 0.1,1.41 -0.19,0.23 -0.47,0.35 -0.75,0.35 z"
     fill="#000000"
     id="path16" />
  <path
     d="m 21.781,33.96 c -0.46,0 -0.87,-0.32 -0.98,-0.79 l -1.05,-4.79 c -0.12,-0.54 0.22,-1.07 0.76,-1.19 0.54,-0.12 1.07,0.22 1.19,0.76 l 1.05,4.79 c 0.12,0.54 -0.22,1.07 -0.76,1.19 -0.07,0.03 -0.14,0.03 -0.21,0.03 z"
     fill="#000000"
     id="path18" />
  <path
     d="m 28.041,33.96 c -0.07,0 -0.14,-0.01 -0.21,-0.02 -0.54,-0.12 -0.88,-0.65 -0.76,-1.19 l 1.05,-4.79 c 0.12,-0.54 0.65,-0.88 1.19,-0.76 0.54,0.12 0.88,0.65 0.76,1.19 l -1.05,4.79 c -0.1,0.47 -0.52,0.78 -0.98,0.78 z"
     fill="#000000"
     id="path20" />
  <path
     d="m 124.091,37.52 c -0.26,0 -0.51,-0.1 -0.71,-0.29 l -9.77,-9.77 c -3.03,-3.09 -3,-8.08 0.05,-11.13 1.5,-1.5 3.48,-2.32 5.59,-2.32 1.78,0.01 3.46,0.59 4.83,1.65 3.09,-2.4 7.59,-2.17 10.43,0.67 1.49,1.49 2.31,3.47 2.32,5.58 0,2.09 -0.81,4.05 -2.27,5.54 l -9.77,9.77 c -0.18,0.2 -0.44,0.3 -0.7,0.3 z m -4.84,-21.51 c -1.57,0 -3.05,0.62 -4.17,1.73 -2.28,2.28 -2.3,6 -0.04,8.31 l 9.05,9.05 9.05,-9.05 c 1.09,-1.11 1.69,-2.57 1.69,-4.13 0,-1.58 -0.62,-3.06 -1.73,-4.17 -2.29,-2.29 -6.02,-2.3 -8.32,-0.04 -0.39,0.38 -1.01,0.38 -1.4,0 -1.1,-1.09 -2.56,-1.69 -4.13,-1.7 z"
     fill="#000000"
     id="path22" />
</svg>
